<?xml version="1.0" encoding="utf-8"?>
<!-- Generator: Adobe Illustrator 27.2.0, SVG Export Plug-In . SVG Version: 6.00 Build 0)  -->
<svg version="1.1" id="Ebene_1" xmlns="http://www.w3.org/2000/svg" xmlns:xlink="http://www.w3.org/1999/xlink" x="0px" y="0px"
	 viewBox="0 0 1000 1000" enable-background="new 0 0 1000 1000" xml:space="preserve">
<g display="none">
	<polygon display="inline" points="836,369.33 590.81,369.33 764.18,195.95 684.05,115.82 510.67,289.19 510.67,44 397.33,44 
		397.33,289.19 223.95,115.82 143.82,195.95 317.19,369.33 72,369.33 72,482.67 317.19,482.67 143.82,656.05 223.95,736.18 
		397.33,562.81 397.33,808 510.67,808 510.67,562.81 684.05,736.18 764.18,656.05 590.81,482.67 836,482.67 	"/>
	
		<path display="inline" fill="none" stroke="#6D3030" stroke-width="40" stroke-linecap="round" stroke-linejoin="round" stroke-miterlimit="10" d="
		M895.11,733.78C906.75,783.69,925.27,937.25,835,960c-15.73,3.96-196,14-196,14s-131.21-48.25-199-104
		c-65.72-54.05,16.42,13.45-142.67-87.33c-84.89-53.78,3.11-194.22,104-150.22l10.67,4.44l-63.56-274.67
		C326.67,257.78,490.22,212,516.89,325.33l16.89,71.11c24.41-8.16,62.22-5.33,84.45,19.46c62.22-25.56,95.27,6.99,104.61,18.76
		c71.83-23.5,108.81,30.79,112.33,45.67C838.69,495.21,895.11,733.78,895.11,733.78z"/>
</g>
<g>
	<g>
		<path fill="#2EDB46" d="M882.36,354.17H626.32l181.05-181.05c4.25-4.25,4.25-11.14,0-15.4l-71.85-71.85
			c-4.25-4.25-11.14-4.25-15.4,0L539.08,266.93V10.89C539.08,4.87,534.2,0,528.19,0H426.59c-6.01,0-10.89,4.87-10.89,10.89V228.3
			c0,7.25,6.97,12.52,13.92,10.45c46.24-13.8,101.2,3.65,116.23,67.52l15.82,66.6c1.36,5.72,7,9.28,12.78,8.15
			c24.21-4.75,55.6-0.57,77,19.07c3,2.76,7.26,3.71,11.09,2.32c56.46-20.52,89.62,3.62,103.26,17.99c2.75,2.9,6.9,4,10.76,2.94
			c46.57-12.72,79.28,5.82,98.05,25.23c6.78,7.01,18.65,2.12,18.65-7.63v-75.88C893.24,359.04,888.37,354.17,882.36,354.17z"/>
		<path fill="#2EDB46" d="M344.23,636.26l65.01-65.01c2.66-2.66,3.75-6.49,2.91-10.15l-49.67-214.67
			c-7.73-37.08,6-67.37,29.02-87.07c4.83-4.13,5.15-11.49,0.65-15.98L234.65,85.88c-4.25-4.25-11.14-4.25-15.4,0l-71.85,71.85
			c-4.25,4.25-4.25,11.14,0,15.4l181.05,181.05H72.42c-6.01,0-10.89,4.87-10.89,10.89v101.61c0,6.01,4.87,10.89,10.89,10.89h256.04
			L147.41,658.59c-4.25,4.25-4.25,11.14,0,15.4l71.85,71.85c4.25,4.25,11.14,4.25,15.4,0l40.16-40.16c1.04-1.04,1.84-2.28,2.39-3.63
			c11.25-27.39,34.24-51.72,63.28-63.35C341.89,638.13,343.17,637.32,344.23,636.26z"/>
	</g>
	
		<path display="none" fill="none" stroke="#000000" stroke-width="40" stroke-linecap="round" stroke-linejoin="round" stroke-miterlimit="10" d="
		M497.87,724.63l-90.03-386.18c-12.99-55.72,78.69-87.29,94.62-18.98c15.67,67.23,66.16,283.8,66.16,283.8l-30.24-129.7
		c-8.3-35.61,82.2-88.91,101.95-4.19c16.53,70.91,28.7,123.1,28.7,123.1l-25.44-109.13c-7.98-34.23,85.96-72.8,101.16-7.56
		c18.68,80.12,23.19,99.46,23.19,99.46l-16.54-70.26c-7.37-31.62,85.44-71.54,101.93-0.78c19.11,81.96,61.98,265.85,61.98,265.85
		c12.67,54.34-24.96,165.79-123.23,190.56c-17.12,4.31-72.36,15.9-72.36,15.9s-69.97,18.8-143.77-41.9
		c-71.55-58.84-49.54-64.4-230.64-160.5c-67.66-35.9,4.89-115.07,55.69-92.93C451.79,703.33,497.87,724.63,497.87,724.63z"/>
	<path d="M692.62,1000c-30.83,0-79.73-8.15-129.85-49.37c-19.04-15.66-31.73-27.73-42.92-38.37
		c-30.43-28.95-52.42-49.86-184.27-119.82c-35.26-18.71-47.67-52.32-31.6-85.63c17.07-35.39,64.52-62.42,105.31-44.64
		c21.39,9.32,42.06,18.55,58.8,26.1l-80.45-345.11c-9.53-40.87,19.9-73.48,53.86-81.39c31.44-7.33,70.24,6.13,81.16,52.99
		L547,419.18c20.07-14.39,44.88-19.59,65.82-13.24c11.72,3.56,25.98,11.67,36.61,29.79c19.2-12.9,47.37-20.68,72.43-13.07
		c17.63,5.35,30.95,17.4,38.5,34.53c18.63-11.06,44.3-17.14,67.46-10.12c23.24,7.05,39.47,25.67,45.71,52.42l61.97,265.85
		c7.97,34.19-0.42,80.49-21.91,120.83c-25.87,48.57-67.23,82.15-116.46,94.56c-16.74,4.22-67.34,14.86-72.77,16
		C721.27,997.49,709.73,1000,692.62,1000z M381.93,698.04c-16.06,0-33.69,12.51-40.58,26.79c-3.91,8.1-6.74,20.12,13.68,30.95
		c136.88,72.63,160.6,95.19,193.42,126.41c11.21,10.66,22.79,21.68,40.68,36.39c26.84,22.08,56.01,35.16,86.7,38.89
		c22.27,2.71,37.42-0.75,38.58-1.02c0.41-0.12,0.6-0.15,1.05-0.25c0.55-0.12,55.02-11.55,71.54-15.71
		c50.91-12.83,78.23-51.76,89.98-73.83c19-35.68,22.79-71.87,18.12-91.91l-61.97-265.85c-3.62-15.54-11.66-22.96-25.29-23.36
		c-17.03-0.5-32.99,10.18-35.84,15.7l16.15,69.29c2.6,11.15-4.33,22.3-15.47,24.91c-11.15,2.61-22.3-4.3-24.93-15.45l-0.02-0.07
		l-16.52-70.19c-0.26-1.11-0.46-2.22-0.62-3.34l-6.04-25.9c-2.15-9.23-6.94-19.77-24.65-19.33c-8.53,0.21-18.2,3.21-25.88,8.03
		c-6.65,4.17-9.6,8.35-10.11,9.93l25.33,108.65c2.6,11.16-4.34,22.31-15.49,24.92c-11.16,2.6-22.31-4.34-24.92-15.49l-25.44-109.13
		c-0.01-0.04-0.02-0.08-0.03-0.12l-3.23-13.84c-7.7-33.01-25.34-29.9-31.14-28.87c-8.2,1.45-16.92,6.04-23.32,12.29
		c-6.18,6.03-7.16,10.54-7.08,11.38l30.23,129.67c2.6,11.16-4.34,22.31-15.49,24.92c-11.16,2.6-22.31-4.34-24.92-15.49l-30.24-129.7
		c-0.01-0.02-0.01-0.05-0.02-0.07l-35.91-154.04c-5.64-24.18-22.05-24.17-31.33-22c-11.09,2.58-27.1,13.44-22.87,31.56l90.03,386.18
		c1.8,7.72-0.96,15.79-7.11,20.8c-6.15,5.01-14.61,6.07-21.81,2.74c-0.46-0.21-46.46-21.47-96.45-43.26
		C389.3,698.72,385.65,698.04,381.93,698.04z"/>
</g>
</svg>
